<svg width="338" height="422" viewBox="0 0 338 422" fill="none" xmlns="http://www.w3.org/2000/svg">
<rect width="338" height="422" rx="14" fill="#8995FF"/>
<path d="M41.808 48.648C41.808 49.992 41.484 51.252 40.836 52.428C40.212 53.604 39.216 54.552 37.848 55.272C36.504 55.992 34.8 56.352 32.736 56.352H28.524V66H23.484V40.872H32.736C34.68 40.872 36.336 41.208 37.704 41.88C39.072 42.552 40.092 43.476 40.764 44.652C41.46 45.828 41.808 47.16 41.808 48.648ZM32.52 52.284C33.912 52.284 34.944 51.972 35.616 51.348C36.288 50.7 36.624 49.8 36.624 48.648C36.624 46.2 35.256 44.976 32.52 44.976H28.524V52.284H32.52ZM50.4263 49.152C51.0743 48.096 51.9143 47.268 52.9463 46.668C54.0023 46.068 55.2023 45.768 56.5463 45.768V51.06H55.2143C53.6303 51.06 52.4303 51.432 51.6143 52.176C50.8223 52.92 50.4263 54.216 50.4263 56.064V66H45.3863V46.056H50.4263V49.152ZM78.481 55.596C78.481 56.316 78.433 56.964 78.337 57.54H63.757C63.877 58.98 64.381 60.108 65.269 60.924C66.157 61.74 67.249 62.148 68.545 62.148C70.417 62.148 71.749 61.344 72.541 59.736H77.977C77.401 61.656 76.297 63.24 74.665 64.488C73.033 65.712 71.029 66.324 68.653 66.324C66.733 66.324 65.005 65.904 63.469 65.064C61.957 64.2 60.769 62.988 59.905 61.428C59.065 59.868 58.645 58.068 58.645 56.028C58.645 53.964 59.065 52.152 59.905 50.592C60.745 49.032 61.921 47.832 63.433 46.992C64.945 46.152 66.685 45.732 68.653 45.732C70.549 45.732 72.241 46.14 73.729 46.956C75.241 47.772 76.405 48.936 77.221 50.448C78.061 51.936 78.481 53.652 78.481 55.596ZM73.261 54.156C73.237 52.86 72.769 51.828 71.857 51.06C70.945 50.268 69.829 49.872 68.509 49.872C67.261 49.872 66.205 50.256 65.341 51.024C64.501 51.768 63.985 52.812 63.793 54.156H73.261ZM106.928 45.768C109.376 45.768 111.344 46.524 112.832 48.036C114.344 49.524 115.1 51.612 115.1 54.3V66H110.06V54.984C110.06 53.424 109.664 52.236 108.872 51.42C108.08 50.58 107 50.16 105.632 50.16C104.264 50.16 103.172 50.58 102.356 51.42C101.564 52.236 101.168 53.424 101.168 54.984V66H96.1278V54.984C96.1278 53.424 95.7318 52.236 94.9398 51.42C94.1478 50.58 93.0678 50.16 91.6998 50.16C90.3078 50.16 89.2038 50.58 88.3878 51.42C87.5958 52.236 87.1998 53.424 87.1998 54.984V66H82.1598V46.056H87.1998V48.468C87.8478 47.628 88.6758 46.968 89.6838 46.488C90.7158 46.008 91.8438 45.768 93.0678 45.768C94.6278 45.768 96.0198 46.104 97.2438 46.776C98.4678 47.424 99.4158 48.36 100.088 49.584C100.736 48.432 101.672 47.508 102.896 46.812C104.144 46.116 105.488 45.768 106.928 45.768ZM122.438 43.68C121.55 43.68 120.806 43.404 120.206 42.852C119.63 42.276 119.342 41.568 119.342 40.728C119.342 39.888 119.63 39.192 120.206 38.64C120.806 38.064 121.55 37.776 122.438 37.776C123.326 37.776 124.058 38.064 124.634 38.64C125.234 39.192 125.534 39.888 125.534 40.728C125.534 41.568 125.234 42.276 124.634 42.852C124.058 43.404 123.326 43.68 122.438 43.68ZM124.922 46.056V66H119.882V46.056H124.922ZM148.73 46.056V66H143.654V63.48C143.006 64.344 142.154 65.028 141.098 65.532C140.066 66.012 138.938 66.252 137.714 66.252C136.154 66.252 134.774 65.928 133.574 65.28C132.374 64.608 131.426 63.636 130.73 62.364C130.058 61.068 129.722 59.532 129.722 57.756V46.056H134.762V57.036C134.762 58.62 135.158 59.844 135.95 60.708C136.742 61.548 137.822 61.968 139.19 61.968C140.582 61.968 141.674 61.548 142.466 60.708C143.258 59.844 143.654 58.62 143.654 57.036V46.056H148.73ZM178.471 45.768C180.919 45.768 182.887 46.524 184.375 48.036C185.887 49.524 186.643 51.612 186.643 54.3V66H181.603V54.984C181.603 53.424 181.207 52.236 180.415 51.42C179.623 50.58 178.543 50.16 177.175 50.16C175.807 50.16 174.715 50.58 173.899 51.42C173.107 52.236 172.711 53.424 172.711 54.984V66H167.671V54.984C167.671 53.424 167.275 52.236 166.483 51.42C165.691 50.58 164.611 50.16 163.243 50.16C161.851 50.16 160.747 50.58 159.931 51.42C159.139 52.236 158.743 53.424 158.743 54.984V66H153.703V46.056H158.743V48.468C159.391 47.628 160.219 46.968 161.227 46.488C162.259 46.008 163.387 45.768 164.611 45.768C166.171 45.768 167.563 46.104 168.787 46.776C170.011 47.424 170.959 48.36 171.631 49.584C172.279 48.432 173.215 47.508 174.439 46.812C175.687 46.116 177.031 45.768 178.471 45.768Z" fill="black"/>
<g filter="url(#filter0_d_1_24)">
<rect x="21" y="338" width="296" height="60" rx="10" fill="#7AFFF7"/>
<rect x="21.5" y="338.5" width="295" height="59" rx="9.5" stroke="black"/>
</g>
<path d="M39.972 119.124C39.972 120.276 39.684 121.38 39.108 122.436C38.532 123.468 37.68 124.332 36.552 125.028C35.448 125.724 34.116 126.12 32.556 126.216V129.132H30.612V126.216C28.428 126.024 26.652 125.328 25.284 124.128C23.916 122.904 23.22 121.356 23.196 119.484H26.688C26.784 120.492 27.156 121.368 27.804 122.112C28.476 122.856 29.412 123.324 30.612 123.516V114.516C29.004 114.108 27.708 113.688 26.724 113.256C25.74 112.824 24.9 112.152 24.204 111.24C23.508 110.328 23.16 109.104 23.16 107.568C23.16 105.624 23.832 104.016 25.176 102.744C26.544 101.472 28.356 100.764 30.612 100.62V97.632H32.556V100.62C34.596 100.788 36.24 101.448 37.488 102.6C38.736 103.728 39.456 105.204 39.648 107.028H36.156C36.036 106.188 35.664 105.432 35.04 104.76C34.416 104.064 33.588 103.608 32.556 103.392V112.176C34.14 112.584 35.424 113.004 36.408 113.436C37.416 113.844 38.256 114.504 38.928 115.416C39.624 116.328 39.972 117.564 39.972 119.124ZM26.508 107.388C26.508 108.564 26.856 109.464 27.552 110.088C28.248 110.712 29.268 111.228 30.612 111.636V103.32C29.364 103.44 28.368 103.848 27.624 104.544C26.88 105.216 26.508 106.164 26.508 107.388ZM32.556 123.552C33.852 123.408 34.86 122.94 35.58 122.148C36.324 121.356 36.696 120.408 36.696 119.304C36.696 118.128 36.336 117.228 35.616 116.604C34.896 115.956 33.876 115.44 32.556 115.056V123.552ZM45.5545 106.524C45.7225 104.316 46.5745 102.588 48.1105 101.34C49.6465 100.092 51.6385 99.468 54.0865 99.468C55.7185 99.468 57.1225 99.768 58.2985 100.368C59.4985 100.944 60.3985 101.736 60.9985 102.744C61.6225 103.752 61.9345 104.892 61.9345 106.164C61.9345 107.652 61.5025 108.936 60.6385 110.016C59.7985 111.096 58.6945 111.792 57.3265 112.104V112.284C58.8865 112.668 60.1225 113.424 61.0345 114.552C61.9465 115.68 62.4025 117.156 62.4025 118.98C62.4025 120.348 62.0905 121.584 61.4665 122.688C60.8425 123.768 59.9065 124.62 58.6585 125.244C57.4105 125.868 55.9105 126.18 54.1585 126.18C51.6145 126.18 49.5265 125.52 47.8945 124.2C46.2625 122.856 45.3505 120.96 45.1585 118.512H48.3265C48.4945 119.952 49.0825 121.128 50.0905 122.04C51.0985 122.952 52.4425 123.408 54.1225 123.408C55.8025 123.408 57.0745 122.976 57.9385 122.112C58.8265 121.224 59.2705 120.084 59.2705 118.692C59.2705 116.892 58.6705 115.596 57.4705 114.804C56.2705 114.012 54.4585 113.616 52.0345 113.616H51.2065V110.88H52.0705C54.2785 110.856 55.9465 110.496 57.0745 109.8C58.2025 109.08 58.7665 107.976 58.7665 106.488C58.7665 105.216 58.3465 104.196 57.5065 103.428C56.6905 102.66 55.5145 102.276 53.9785 102.276C52.4905 102.276 51.2905 102.66 50.3785 103.428C49.4665 104.196 48.9265 105.228 48.7585 106.524H45.5545ZM68.4098 126.216C67.7858 126.216 67.2578 126 66.8258 125.568C66.3938 125.136 66.1778 124.608 66.1778 123.984C66.1778 123.36 66.3938 122.832 66.8258 122.4C67.2578 121.968 67.7858 121.752 68.4098 121.752C69.0098 121.752 69.5138 121.968 69.9218 122.4C70.3538 122.832 70.5698 123.36 70.5698 123.984C70.5698 124.608 70.3538 125.136 69.9218 125.568C69.5138 126 69.0098 126.216 68.4098 126.216ZM78.5963 119.016C78.8363 120.384 79.3883 121.44 80.2523 122.184C81.1403 122.928 82.3283 123.3 83.8163 123.3C85.8083 123.3 87.2723 122.52 88.2083 120.96C89.1683 119.4 89.6243 116.772 89.5763 113.076C89.0723 114.156 88.2323 115.008 87.0563 115.632C85.8803 116.232 84.5723 116.532 83.1323 116.532C81.5243 116.532 80.0843 116.208 78.8123 115.56C77.5643 114.888 76.5803 113.916 75.8603 112.644C75.1403 111.372 74.7803 109.836 74.7803 108.036C74.7803 105.468 75.5243 103.404 77.0123 101.844C78.5003 100.26 80.6123 99.468 83.3483 99.468C86.7083 99.468 89.0603 100.56 90.4043 102.744C91.7723 104.928 92.4563 108.18 92.4563 112.5C92.4563 115.524 92.1803 118.02 91.6283 119.988C91.1003 121.956 90.1883 123.456 88.8923 124.488C87.6203 125.52 85.8683 126.036 83.6363 126.036C81.1883 126.036 79.2803 125.376 77.9123 124.056C76.5443 122.736 75.7643 121.056 75.5723 119.016H78.5963ZM83.6723 113.76C85.2803 113.76 86.6003 113.268 87.6323 112.284C88.6643 111.276 89.1803 109.92 89.1803 108.216C89.1803 106.416 88.6763 104.964 87.6683 103.86C86.6603 102.756 85.2443 102.204 83.4203 102.204C81.7403 102.204 80.3963 102.732 79.3883 103.788C78.4043 104.844 77.9123 106.236 77.9123 107.964C77.9123 109.716 78.4043 111.12 79.3883 112.176C80.3723 113.232 81.8003 113.76 83.6723 113.76ZM101.272 119.016C101.512 120.384 102.064 121.44 102.928 122.184C103.816 122.928 105.004 123.3 106.492 123.3C108.484 123.3 109.948 122.52 110.884 120.96C111.844 119.4 112.3 116.772 112.252 113.076C111.748 114.156 110.908 115.008 109.732 115.632C108.556 116.232 107.248 116.532 105.808 116.532C104.2 116.532 102.76 116.208 101.488 115.56C100.24 114.888 99.2561 113.916 98.5361 112.644C97.8161 111.372 97.4561 109.836 97.4561 108.036C97.4561 105.468 98.2001 103.404 99.6881 101.844C101.176 100.26 103.288 99.468 106.024 99.468C109.384 99.468 111.736 100.56 113.08 102.744C114.448 104.928 115.132 108.18 115.132 112.5C115.132 115.524 114.856 118.02 114.304 119.988C113.776 121.956 112.864 123.456 111.568 124.488C110.296 125.52 108.544 126.036 106.312 126.036C103.864 126.036 101.956 125.376 100.588 124.056C99.2201 122.736 98.4401 121.056 98.2481 119.016H101.272ZM106.348 113.76C107.956 113.76 109.276 113.268 110.308 112.284C111.34 111.276 111.856 109.92 111.856 108.216C111.856 106.416 111.352 104.964 110.344 103.86C109.336 102.756 107.92 102.204 106.096 102.204C104.416 102.204 103.072 102.732 102.064 103.788C101.08 104.844 100.588 106.236 100.588 107.964C100.588 109.716 101.08 111.12 102.064 112.176C103.048 113.232 104.476 113.76 106.348 113.76Z" fill="black"/>
<path d="M22.14 170.721C22.2287 169.556 22.6783 168.644 23.489 167.985C24.2997 167.326 25.351 166.997 26.643 166.997C27.5043 166.997 28.2453 167.155 28.866 167.472C29.4993 167.776 29.9743 168.194 30.291 168.726C30.6203 169.258 30.785 169.86 30.785 170.531C30.785 171.316 30.557 171.994 30.101 172.564C29.6577 173.134 29.075 173.501 28.353 173.666V173.761C29.1763 173.964 29.8287 174.363 30.31 174.958C30.7913 175.553 31.032 176.332 31.032 177.295C31.032 178.017 30.8673 178.669 30.538 179.252C30.2087 179.822 29.7147 180.272 29.056 180.601C28.3973 180.93 27.6057 181.095 26.681 181.095C25.3383 181.095 24.2363 180.747 23.375 180.05C22.5137 179.341 22.0323 178.34 21.931 177.048H23.603C23.6917 177.808 24.002 178.429 24.534 178.91C25.066 179.391 25.7753 179.632 26.662 179.632C27.5487 179.632 28.22 179.404 28.676 178.948C29.1447 178.479 29.379 177.878 29.379 177.143C29.379 176.193 29.0623 175.509 28.429 175.091C27.7957 174.673 26.8393 174.464 25.56 174.464H25.123V173.02H25.579C26.7443 173.007 27.6247 172.817 28.22 172.45C28.8153 172.07 29.113 171.487 29.113 170.702C29.113 170.031 28.8913 169.492 28.448 169.087C28.0173 168.682 27.3967 168.479 26.586 168.479C25.8007 168.479 25.1673 168.682 24.686 169.087C24.2047 169.492 23.9197 170.037 23.831 170.721H22.14ZM39.0665 174.388L43.1325 181H41.1755L38.0025 175.832L34.9815 181H33.0625L37.1095 174.388L33.0435 167.757H34.9815L38.1735 172.944L41.2135 167.757H43.1515L39.0665 174.388ZM57.1487 174.179C57.63 174.255 58.067 174.451 58.4597 174.768C58.865 175.085 59.1817 175.477 59.4097 175.946C59.6504 176.415 59.7707 176.915 59.7707 177.447C59.7707 178.118 59.5997 178.726 59.2577 179.271C58.9157 179.803 58.4154 180.227 57.7567 180.544C57.1107 180.848 56.3444 181 55.4577 181H50.5177V167.757H55.2677C56.167 167.757 56.9334 167.909 57.5667 168.213C58.2 168.504 58.675 168.903 58.9917 169.41C59.3084 169.917 59.4667 170.487 59.4667 171.12C59.4667 171.905 59.2514 172.558 58.8207 173.077C58.4027 173.584 57.8454 173.951 57.1487 174.179ZM52.2467 173.476H55.1537C55.9644 173.476 56.5914 173.286 57.0347 172.906C57.478 172.526 57.6997 172 57.6997 171.329C57.6997 170.658 57.478 170.132 57.0347 169.752C56.5914 169.372 55.9517 169.182 55.1157 169.182H52.2467V173.476ZM55.3057 179.575C56.167 179.575 56.8384 179.372 57.3197 178.967C57.801 178.562 58.0417 177.998 58.0417 177.276C58.0417 176.541 57.7884 175.965 57.2817 175.547C56.775 175.116 56.0974 174.901 55.2487 174.901H52.2467V179.575H55.3057ZM71.67 175.395C71.67 175.724 71.651 176.073 71.613 176.44H63.291C63.3544 177.466 63.7027 178.27 64.336 178.853C64.982 179.423 65.761 179.708 66.673 179.708C67.4204 179.708 68.041 179.537 68.535 179.195C69.0417 178.84 69.3964 178.372 69.599 177.789H71.461C71.1824 178.79 70.625 179.607 69.789 180.24C68.953 180.861 67.9144 181.171 66.673 181.171C65.685 181.171 64.7984 180.949 64.013 180.506C63.2404 180.063 62.6324 179.436 62.189 178.625C61.7457 177.802 61.524 176.852 61.524 175.775C61.524 174.698 61.7394 173.755 62.17 172.944C62.6007 172.133 63.2024 171.513 63.975 171.082C64.7604 170.639 65.6597 170.417 66.673 170.417C67.661 170.417 68.535 170.632 69.295 171.063C70.055 171.494 70.6377 172.089 71.043 172.849C71.461 173.596 71.67 174.445 71.67 175.395ZM69.884 175.034C69.884 174.375 69.7384 173.812 69.447 173.343C69.1557 172.862 68.7567 172.501 68.25 172.26C67.756 172.007 67.205 171.88 66.597 171.88C65.723 171.88 64.9757 172.159 64.355 172.716C63.747 173.273 63.3987 174.046 63.31 175.034H69.884ZM79.0253 170.398C80.2919 170.398 81.3179 170.784 82.1033 171.557C82.8886 172.317 83.2813 173.419 83.2813 174.863V181H81.5713V175.11C81.5713 174.071 81.3116 173.28 80.7923 172.735C80.2729 172.178 79.5636 171.899 78.6643 171.899C77.7523 171.899 77.0239 172.184 76.4793 172.754C75.9473 173.324 75.6813 174.154 75.6813 175.243V181H73.9523V170.588H75.6813V172.07C76.0233 171.538 76.4856 171.126 77.0683 170.835C77.6636 170.544 78.3159 170.398 79.0253 170.398ZM86.9986 168.897C86.6692 168.897 86.3906 168.783 86.1626 168.555C85.9346 168.327 85.8206 168.048 85.8206 167.719C85.8206 167.39 85.9346 167.111 86.1626 166.883C86.3906 166.655 86.6692 166.541 86.9986 166.541C87.3152 166.541 87.5812 166.655 87.7966 166.883C88.0246 167.111 88.1386 167.39 88.1386 167.719C88.1386 168.048 88.0246 168.327 87.7966 168.555C87.5812 168.783 87.3152 168.897 86.9986 168.897ZM87.8346 170.588V181H86.1056V170.588H87.8346ZM95.0184 172.013H92.8334V181H91.1044V172.013H89.7554V170.588H91.1044V169.847C91.1044 168.682 91.402 167.833 91.9974 167.301C92.6054 166.756 93.5744 166.484 94.9044 166.484V167.928C94.1444 167.928 93.606 168.08 93.2894 168.384C92.9854 168.675 92.8334 169.163 92.8334 169.847V170.588H95.0184V172.013ZM97.9273 168.897C97.598 168.897 97.3193 168.783 97.0913 168.555C96.8633 168.327 96.7493 168.048 96.7493 167.719C96.7493 167.39 96.8633 167.111 97.0913 166.883C97.3193 166.655 97.598 166.541 97.9273 166.541C98.244 166.541 98.51 166.655 98.7253 166.883C98.9533 167.111 99.0673 167.39 99.0673 167.719C99.0673 168.048 98.9533 168.327 98.7253 168.555C98.51 168.783 98.244 168.897 97.9273 168.897ZM98.7633 170.588V181H97.0343V170.588H98.7633ZM103.819 172.013V178.15C103.819 178.657 103.927 179.018 104.142 179.233C104.357 179.436 104.731 179.537 105.263 179.537H106.536V181H104.978C104.015 181 103.293 180.778 102.812 180.335C102.331 179.892 102.09 179.163 102.09 178.15V172.013H100.741V170.588H102.09V167.966H103.819V170.588H106.536V172.013H103.819ZM112.317 181.171C111.519 181.171 110.803 181.038 110.17 180.772C109.537 180.493 109.036 180.113 108.669 179.632C108.302 179.138 108.099 178.574 108.061 177.941H109.847C109.898 178.46 110.138 178.885 110.569 179.214C111.012 179.543 111.589 179.708 112.298 179.708C112.957 179.708 113.476 179.562 113.856 179.271C114.236 178.98 114.426 178.612 114.426 178.169C114.426 177.713 114.223 177.377 113.818 177.162C113.413 176.934 112.786 176.712 111.937 176.497C111.164 176.294 110.531 176.092 110.037 175.889C109.556 175.674 109.138 175.363 108.783 174.958C108.441 174.54 108.27 173.995 108.27 173.324C108.27 172.792 108.428 172.304 108.745 171.861C109.062 171.418 109.511 171.069 110.094 170.816C110.677 170.55 111.342 170.417 112.089 170.417C113.242 170.417 114.173 170.708 114.882 171.291C115.591 171.874 115.971 172.672 116.022 173.685H114.293C114.255 173.14 114.033 172.703 113.628 172.374C113.235 172.045 112.703 171.88 112.032 171.88C111.411 171.88 110.917 172.013 110.55 172.279C110.183 172.545 109.999 172.893 109.999 173.324C109.999 173.666 110.107 173.951 110.322 174.179C110.55 174.394 110.829 174.572 111.158 174.711C111.5 174.838 111.969 174.983 112.564 175.148C113.311 175.351 113.919 175.553 114.388 175.756C114.857 175.946 115.256 176.237 115.585 176.63C115.927 177.023 116.104 177.536 116.117 178.169C116.117 178.739 115.959 179.252 115.642 179.708C115.325 180.164 114.876 180.525 114.293 180.791C113.723 181.044 113.064 181.171 112.317 181.171ZM24.154 207.757V216.136C24.154 217.314 24.439 218.188 25.009 218.758C25.5917 219.328 26.396 219.613 27.422 219.613C28.4353 219.613 29.227 219.328 29.797 218.758C30.3797 218.188 30.671 217.314 30.671 216.136V207.757H32.4V216.117C32.4 217.219 32.1783 218.15 31.735 218.91C31.2917 219.657 30.69 220.215 29.93 220.582C29.1827 220.949 28.3403 221.133 27.403 221.133C26.4657 221.133 25.617 220.949 24.857 220.582C24.1097 220.215 23.5143 219.657 23.071 218.91C22.6403 218.15 22.425 217.219 22.425 216.117V207.757H24.154ZM37.0133 212.507C37.3553 211.912 37.862 211.418 38.5333 211.025C39.2173 210.62 40.009 210.417 40.9083 210.417C41.833 210.417 42.669 210.639 43.4163 211.082C44.1763 211.525 44.7716 212.152 45.2023 212.963C45.633 213.761 45.8483 214.692 45.8483 215.756C45.8483 216.807 45.633 217.745 45.2023 218.568C44.7716 219.391 44.1763 220.031 43.4163 220.487C42.669 220.943 41.833 221.171 40.9083 221.171C40.0216 221.171 39.2363 220.975 38.5523 220.582C37.881 220.177 37.368 219.676 37.0133 219.081V225.94H35.2843V210.588H37.0133V212.507ZM44.0813 215.756C44.0813 214.971 43.923 214.287 43.6063 213.704C43.2896 213.121 42.859 212.678 42.3143 212.374C41.7823 212.07 41.1933 211.918 40.5473 211.918C39.914 211.918 39.325 212.076 38.7803 212.393C38.2483 212.697 37.8176 213.147 37.4883 213.742C37.1716 214.325 37.0133 215.002 37.0133 215.775C37.0133 216.56 37.1716 217.251 37.4883 217.846C37.8176 218.429 38.2483 218.878 38.7803 219.195C39.325 219.499 39.914 219.651 40.5473 219.651C41.1933 219.651 41.7823 219.499 42.3143 219.195C42.859 218.878 43.2896 218.429 43.6063 217.846C43.923 217.251 44.0813 216.554 44.0813 215.756ZM50.2331 212.013V218.15C50.2331 218.657 50.3408 219.018 50.5561 219.233C50.7715 219.436 51.1451 219.537 51.6771 219.537H52.9501V221H51.3921C50.4295 221 49.7075 220.778 49.2261 220.335C48.7448 219.892 48.5041 219.163 48.5041 218.15V212.013H47.1551V210.588H48.5041V207.966H50.2331V210.588H52.9501V212.013H50.2331ZM59.586 221.171C58.6107 221.171 57.724 220.949 56.926 220.506C56.1407 220.063 55.52 219.436 55.064 218.625C54.6207 217.802 54.399 216.852 54.399 215.775C54.399 214.711 54.627 213.774 55.083 212.963C55.5517 212.14 56.185 211.513 56.983 211.082C57.781 210.639 58.674 210.417 59.662 210.417C60.65 210.417 61.543 210.639 62.341 211.082C63.139 211.513 63.766 212.133 64.222 212.944C64.6907 213.755 64.925 214.698 64.925 215.775C64.925 216.852 64.6844 217.802 64.203 218.625C63.7344 219.436 63.0947 220.063 62.284 220.506C61.4734 220.949 60.574 221.171 59.586 221.171ZM59.586 219.651C60.2067 219.651 60.7894 219.505 61.334 219.214C61.8787 218.923 62.3157 218.486 62.645 217.903C62.987 217.32 63.158 216.611 63.158 215.775C63.158 214.939 62.9934 214.23 62.664 213.647C62.3347 213.064 61.904 212.634 61.372 212.355C60.84 212.064 60.2637 211.918 59.643 211.918C59.0097 211.918 58.427 212.064 57.895 212.355C57.3757 212.634 56.9577 213.064 56.641 213.647C56.3244 214.23 56.166 214.939 56.166 215.775C56.166 216.624 56.318 217.339 56.622 217.922C56.9387 218.505 57.3567 218.942 57.876 219.233C58.3954 219.512 58.9654 219.651 59.586 219.651ZM71.5228 208.84V207.263H75.0948V221H73.3468V208.84H71.5228ZM78.0647 213.989C78.0647 211.81 78.4194 210.113 79.1287 208.897C79.8381 207.668 81.0794 207.054 82.8527 207.054C84.6134 207.054 85.8484 207.668 86.5577 208.897C87.2671 210.113 87.6217 211.81 87.6217 213.989C87.6217 216.206 87.2671 217.928 86.5577 219.157C85.8484 220.386 84.6134 221 82.8527 221C81.0794 221 79.8381 220.386 79.1287 219.157C78.4194 217.928 78.0647 216.206 78.0647 213.989ZM85.9117 213.989C85.9117 212.887 85.8357 211.956 85.6837 211.196C85.5444 210.423 85.2467 209.803 84.7907 209.334C84.3474 208.865 83.7014 208.631 82.8527 208.631C81.9914 208.631 81.3327 208.865 80.8767 209.334C80.4334 209.803 80.1357 210.423 79.9837 211.196C79.8444 211.956 79.7747 212.887 79.7747 213.989C79.7747 215.129 79.8444 216.085 79.9837 216.858C80.1357 217.631 80.4334 218.251 80.8767 218.72C81.3327 219.189 81.9914 219.423 82.8527 219.423C83.7014 219.423 84.3474 219.189 84.7907 218.72C85.2467 218.251 85.5444 217.631 85.6837 216.858C85.8357 216.085 85.9117 215.129 85.9117 213.989ZM89.9954 213.989C89.9954 211.81 90.35 210.113 91.0594 208.897C91.7687 207.668 93.01 207.054 94.7834 207.054C96.544 207.054 97.779 207.668 98.4884 208.897C99.1977 210.113 99.5524 211.81 99.5524 213.989C99.5524 216.206 99.1977 217.928 98.4884 219.157C97.779 220.386 96.544 221 94.7834 221C93.01 221 91.7687 220.386 91.0594 219.157C90.35 217.928 89.9954 216.206 89.9954 213.989ZM97.8424 213.989C97.8424 212.887 97.7664 211.956 97.6144 211.196C97.475 210.423 97.1774 209.803 96.7214 209.334C96.278 208.865 95.632 208.631 94.7834 208.631C93.922 208.631 93.2634 208.865 92.8074 209.334C92.364 209.803 92.0664 210.423 91.9144 211.196C91.775 211.956 91.7054 212.887 91.7054 213.989C91.7054 215.129 91.775 216.085 91.9144 216.858C92.0664 217.631 92.364 218.251 92.8074 218.72C93.2634 219.189 93.922 219.423 94.7834 219.423C95.632 219.423 96.278 219.189 96.7214 218.72C97.1774 218.251 97.475 217.631 97.6144 216.858C97.7664 216.085 97.8424 215.129 97.8424 213.989ZM114.732 210.398C115.543 210.398 116.265 210.569 116.898 210.911C117.531 211.24 118.032 211.741 118.399 212.412C118.766 213.083 118.95 213.9 118.95 214.863V221H117.24V215.11C117.24 214.071 116.98 213.28 116.461 212.735C115.954 212.178 115.264 211.899 114.39 211.899C113.491 211.899 112.775 212.19 112.243 212.773C111.711 213.343 111.445 214.173 111.445 215.262V221H109.735V215.11C109.735 214.071 109.475 213.28 108.956 212.735C108.449 212.178 107.759 211.899 106.885 211.899C105.986 211.899 105.27 212.19 104.738 212.773C104.206 213.343 103.94 214.173 103.94 215.262V221H102.211V210.588H103.94V212.089C104.282 211.544 104.738 211.126 105.308 210.835C105.891 210.544 106.53 210.398 107.227 210.398C108.101 210.398 108.874 210.594 109.545 210.987C110.216 211.38 110.717 211.956 111.046 212.716C111.337 211.981 111.819 211.411 112.49 211.006C113.161 210.601 113.909 210.398 114.732 210.398ZM123.515 212.526C123.87 211.905 124.389 211.399 125.073 211.006C125.757 210.613 126.536 210.417 127.41 210.417C128.348 210.417 129.19 210.639 129.937 211.082C130.685 211.525 131.274 212.152 131.704 212.963C132.135 213.761 132.35 214.692 132.35 215.756C132.35 216.807 132.135 217.745 131.704 218.568C131.274 219.391 130.678 220.031 129.918 220.487C129.171 220.943 128.335 221.171 127.41 221.171C126.511 221.171 125.719 220.975 125.035 220.582C124.364 220.189 123.857 219.689 123.515 219.081V221H121.786V206.94H123.515V212.526ZM130.583 215.756C130.583 214.971 130.425 214.287 130.108 213.704C129.792 213.121 129.361 212.678 128.816 212.374C128.284 212.07 127.695 211.918 127.049 211.918C126.416 211.918 125.827 212.076 125.282 212.393C124.75 212.697 124.32 213.147 123.99 213.742C123.674 214.325 123.515 215.002 123.515 215.775C123.515 216.56 123.674 217.251 123.99 217.846C124.32 218.429 124.75 218.878 125.282 219.195C125.827 219.499 126.416 219.651 127.049 219.651C127.695 219.651 128.284 219.499 128.816 219.195C129.361 218.878 129.792 218.429 130.108 217.846C130.425 217.251 130.583 216.554 130.583 215.756ZM141.421 207.757V221H139.692V207.757H141.421ZM156.888 210.398C157.699 210.398 158.421 210.569 159.054 210.911C159.688 211.24 160.188 211.741 160.555 212.412C160.923 213.083 161.106 213.9 161.106 214.863V221H159.396V215.11C159.396 214.071 159.137 213.28 158.617 212.735C158.111 212.178 157.42 211.899 156.546 211.899C155.647 211.899 154.931 212.19 154.399 212.773C153.867 213.343 153.601 214.173 153.601 215.262V221H151.891V215.11C151.891 214.071 151.632 213.28 151.112 212.735C150.606 212.178 149.915 211.899 149.041 211.899C148.142 211.899 147.426 212.19 146.894 212.773C146.362 213.343 146.096 214.173 146.096 215.262V221H144.367V210.588H146.096V212.089C146.438 211.544 146.894 211.126 147.464 210.835C148.047 210.544 148.687 210.398 149.383 210.398C150.257 210.398 151.03 210.594 151.701 210.987C152.373 211.38 152.873 211.956 153.202 212.716C153.494 211.981 153.975 211.411 154.646 211.006C155.318 210.601 156.065 210.398 156.888 210.398ZM163.296 215.756C163.296 214.692 163.512 213.761 163.942 212.963C164.373 212.152 164.962 211.525 165.709 211.082C166.469 210.639 167.312 210.417 168.236 210.417C169.148 210.417 169.94 210.613 170.611 211.006C171.283 211.399 171.783 211.893 172.112 212.488V210.588H173.86V221H172.112V219.062C171.77 219.67 171.257 220.177 170.573 220.582C169.902 220.975 169.117 221.171 168.217 221.171C167.293 221.171 166.457 220.943 165.709 220.487C164.962 220.031 164.373 219.391 163.942 218.568C163.512 217.745 163.296 216.807 163.296 215.756ZM172.112 215.775C172.112 214.99 171.954 214.306 171.637 213.723C171.321 213.14 170.89 212.697 170.345 212.393C169.813 212.076 169.224 211.918 168.578 211.918C167.932 211.918 167.343 212.07 166.811 212.374C166.279 212.678 165.855 213.121 165.538 213.704C165.222 214.287 165.063 214.971 165.063 215.756C165.063 216.554 165.222 217.251 165.538 217.846C165.855 218.429 166.279 218.878 166.811 219.195C167.343 219.499 167.932 219.651 168.578 219.651C169.224 219.651 169.813 219.499 170.345 219.195C170.89 218.878 171.321 218.429 171.637 217.846C171.954 217.251 172.112 216.56 172.112 215.775ZM181.076 210.417C181.976 210.417 182.761 210.613 183.432 211.006C184.116 211.399 184.623 211.893 184.952 212.488V210.588H186.7V221.228C186.7 222.178 186.498 223.02 186.092 223.755C185.687 224.502 185.104 225.085 184.344 225.503C183.597 225.921 182.723 226.13 181.722 226.13C180.354 226.13 179.214 225.807 178.302 225.161C177.39 224.515 176.852 223.635 176.687 222.52H178.397C178.587 223.153 178.98 223.66 179.575 224.04C180.171 224.433 180.886 224.629 181.722 224.629C182.672 224.629 183.445 224.331 184.04 223.736C184.648 223.141 184.952 222.305 184.952 221.228V219.043C184.61 219.651 184.104 220.158 183.432 220.563C182.761 220.968 181.976 221.171 181.076 221.171C180.152 221.171 179.309 220.943 178.549 220.487C177.802 220.031 177.213 219.391 176.782 218.568C176.352 217.745 176.136 216.807 176.136 215.756C176.136 214.692 176.352 213.761 176.782 212.963C177.213 212.152 177.802 211.525 178.549 211.082C179.309 210.639 180.152 210.417 181.076 210.417ZM184.952 215.775C184.952 214.99 184.794 214.306 184.477 213.723C184.161 213.14 183.73 212.697 183.185 212.393C182.653 212.076 182.064 211.918 181.418 211.918C180.772 211.918 180.183 212.07 179.651 212.374C179.119 212.678 178.695 213.121 178.378 213.704C178.062 214.287 177.903 214.971 177.903 215.756C177.903 216.554 178.062 217.251 178.378 217.846C178.695 218.429 179.119 218.878 179.651 219.195C180.183 219.499 180.772 219.651 181.418 219.651C182.064 219.651 182.653 219.499 183.185 219.195C183.73 218.878 184.161 218.429 184.477 217.846C184.794 217.251 184.952 216.56 184.952 215.775ZM199.122 215.395C199.122 215.724 199.103 216.073 199.065 216.44H190.743C190.807 217.466 191.155 218.27 191.788 218.853C192.434 219.423 193.213 219.708 194.125 219.708C194.873 219.708 195.493 219.537 195.987 219.195C196.494 218.84 196.849 218.372 197.051 217.789H198.913C198.635 218.79 198.077 219.607 197.241 220.24C196.405 220.861 195.367 221.171 194.125 221.171C193.137 221.171 192.251 220.949 191.465 220.506C190.693 220.063 190.085 219.436 189.641 218.625C189.198 217.802 188.976 216.852 188.976 215.775C188.976 214.698 189.192 213.755 189.622 212.944C190.053 212.133 190.655 211.513 191.427 211.082C192.213 210.639 193.112 210.417 194.125 210.417C195.113 210.417 195.987 210.632 196.747 211.063C197.507 211.494 198.09 212.089 198.495 212.849C198.913 213.596 199.122 214.445 199.122 215.395ZM197.336 215.034C197.336 214.375 197.191 213.812 196.899 213.343C196.608 212.862 196.209 212.501 195.702 212.26C195.208 212.007 194.657 211.88 194.049 211.88C193.175 211.88 192.428 212.159 191.807 212.716C191.199 213.273 190.851 214.046 190.762 215.034H197.336ZM215.704 210.588V221H213.975V219.461C213.646 219.993 213.183 220.411 212.588 220.715C212.005 221.006 211.359 221.152 210.65 221.152C209.839 221.152 209.111 220.987 208.465 220.658C207.819 220.316 207.306 219.809 206.926 219.138C206.559 218.467 206.375 217.65 206.375 216.687V210.588H208.085V216.459C208.085 217.485 208.345 218.277 208.864 218.834C209.383 219.379 210.093 219.651 210.992 219.651C211.917 219.651 212.645 219.366 213.177 218.796C213.709 218.226 213.975 217.396 213.975 216.307V210.588H215.704ZM220.352 212.507C220.694 211.912 221.201 211.418 221.872 211.025C222.556 210.62 223.348 210.417 224.247 210.417C225.172 210.417 226.008 210.639 226.755 211.082C227.515 211.525 228.11 212.152 228.541 212.963C228.972 213.761 229.187 214.692 229.187 215.756C229.187 216.807 228.972 217.745 228.541 218.568C228.11 219.391 227.515 220.031 226.755 220.487C226.008 220.943 225.172 221.171 224.247 221.171C223.36 221.171 222.575 220.975 221.891 220.582C221.22 220.177 220.707 219.676 220.352 219.081V225.94H218.623V210.588H220.352V212.507ZM227.42 215.756C227.42 214.971 227.262 214.287 226.945 213.704C226.628 213.121 226.198 212.678 225.653 212.374C225.121 212.07 224.532 211.918 223.886 211.918C223.253 211.918 222.664 212.076 222.119 212.393C221.587 212.697 221.156 213.147 220.827 213.742C220.51 214.325 220.352 215.002 220.352 215.775C220.352 216.56 220.51 217.251 220.827 217.846C221.156 218.429 221.587 218.878 222.119 219.195C222.664 219.499 223.253 219.651 223.886 219.651C224.532 219.651 225.121 219.499 225.653 219.195C226.198 218.878 226.628 218.429 226.945 217.846C227.262 217.251 227.42 216.554 227.42 215.756ZM233.192 206.94V221H231.463V206.94H233.192ZM240.68 221.171C239.704 221.171 238.818 220.949 238.02 220.506C237.234 220.063 236.614 219.436 236.158 218.625C235.714 217.802 235.493 216.852 235.493 215.775C235.493 214.711 235.721 213.774 236.177 212.963C236.645 212.14 237.279 211.513 238.077 211.082C238.875 210.639 239.768 210.417 240.756 210.417C241.744 210.417 242.637 210.639 243.435 211.082C244.233 211.513 244.86 212.133 245.316 212.944C245.784 213.755 246.019 214.698 246.019 215.775C246.019 216.852 245.778 217.802 245.297 218.625C244.828 219.436 244.188 220.063 243.378 220.506C242.567 220.949 241.668 221.171 240.68 221.171ZM240.68 219.651C241.3 219.651 241.883 219.505 242.428 219.214C242.972 218.923 243.409 218.486 243.739 217.903C244.081 217.32 244.252 216.611 244.252 215.775C244.252 214.939 244.087 214.23 243.758 213.647C243.428 213.064 242.998 212.634 242.466 212.355C241.934 212.064 241.357 211.918 240.737 211.918C240.103 211.918 239.521 212.064 238.989 212.355C238.469 212.634 238.051 213.064 237.735 213.647C237.418 214.23 237.26 214.939 237.26 215.775C237.26 216.624 237.412 217.339 237.716 217.922C238.032 218.505 238.45 218.942 238.97 219.233C239.489 219.512 240.059 219.651 240.68 219.651ZM247.646 215.756C247.646 214.692 247.861 213.761 248.292 212.963C248.723 212.152 249.312 211.525 250.059 211.082C250.819 210.639 251.661 210.417 252.586 210.417C253.498 210.417 254.29 210.613 254.961 211.006C255.632 211.399 256.133 211.893 256.462 212.488V210.588H258.21V221H256.462V219.062C256.12 219.67 255.607 220.177 254.923 220.582C254.252 220.975 253.466 221.171 252.567 221.171C251.642 221.171 250.806 220.943 250.059 220.487C249.312 220.031 248.723 219.391 248.292 218.568C247.861 217.745 247.646 216.807 247.646 215.756ZM256.462 215.775C256.462 214.99 256.304 214.306 255.987 213.723C255.67 213.14 255.24 212.697 254.695 212.393C254.163 212.076 253.574 211.918 252.928 211.918C252.282 211.918 251.693 212.07 251.161 212.374C250.629 212.678 250.205 213.121 249.888 213.704C249.571 214.287 249.413 214.971 249.413 215.756C249.413 216.554 249.571 217.251 249.888 217.846C250.205 218.429 250.629 218.878 251.161 219.195C251.693 219.499 252.282 219.651 252.928 219.651C253.574 219.651 254.163 219.499 254.695 219.195C255.24 218.878 255.67 218.429 255.987 217.846C256.304 217.251 256.462 216.56 256.462 215.775ZM260.486 215.756C260.486 214.692 260.701 213.761 261.132 212.963C261.563 212.152 262.152 211.525 262.899 211.082C263.659 210.639 264.508 210.417 265.445 210.417C266.256 210.417 267.009 210.607 267.706 210.987C268.403 211.354 268.935 211.842 269.302 212.45V206.94H271.05V221H269.302V219.043C268.96 219.664 268.453 220.177 267.782 220.582C267.111 220.975 266.325 221.171 265.426 221.171C264.501 221.171 263.659 220.943 262.899 220.487C262.152 220.031 261.563 219.391 261.132 218.568C260.701 217.745 260.486 216.807 260.486 215.756ZM269.302 215.775C269.302 214.99 269.144 214.306 268.827 213.723C268.51 213.14 268.08 212.697 267.535 212.393C267.003 212.076 266.414 211.918 265.768 211.918C265.122 211.918 264.533 212.07 264.001 212.374C263.469 212.678 263.045 213.121 262.728 213.704C262.411 214.287 262.253 214.971 262.253 215.756C262.253 216.554 262.411 217.251 262.728 217.846C263.045 218.429 263.469 218.878 264.001 219.195C264.533 219.499 265.122 219.651 265.768 219.651C266.414 219.651 267.003 219.499 267.535 219.195C268.08 218.878 268.51 218.429 268.827 217.846C269.144 217.251 269.302 216.56 269.302 215.775ZM24.154 247.757V256.136C24.154 257.314 24.439 258.188 25.009 258.758C25.5917 259.328 26.396 259.613 27.422 259.613C28.4353 259.613 29.227 259.328 29.797 258.758C30.3797 258.188 30.671 257.314 30.671 256.136V247.757H32.4V256.117C32.4 257.219 32.1783 258.15 31.735 258.91C31.2917 259.657 30.69 260.215 29.93 260.582C29.1827 260.949 28.3403 261.133 27.403 261.133C26.4657 261.133 25.617 260.949 24.857 260.582C24.1097 260.215 23.5143 259.657 23.071 258.91C22.6403 258.15 22.425 257.219 22.425 256.117V247.757H24.154ZM37.0133 252.507C37.3553 251.912 37.862 251.418 38.5333 251.025C39.2173 250.62 40.009 250.417 40.9083 250.417C41.833 250.417 42.669 250.639 43.4163 251.082C44.1763 251.525 44.7716 252.152 45.2023 252.963C45.633 253.761 45.8483 254.692 45.8483 255.756C45.8483 256.807 45.633 257.745 45.2023 258.568C44.7716 259.391 44.1763 260.031 43.4163 260.487C42.669 260.943 41.833 261.171 40.9083 261.171C40.0216 261.171 39.2363 260.975 38.5523 260.582C37.881 260.177 37.368 259.676 37.0133 259.081V265.94H35.2843V250.588H37.0133V252.507ZM44.0813 255.756C44.0813 254.971 43.923 254.287 43.6063 253.704C43.2896 253.121 42.859 252.678 42.3143 252.374C41.7823 252.07 41.1933 251.918 40.5473 251.918C39.914 251.918 39.325 252.076 38.7803 252.393C38.2483 252.697 37.8176 253.147 37.4883 253.742C37.1716 254.325 37.0133 255.002 37.0133 255.775C37.0133 256.56 37.1716 257.251 37.4883 257.846C37.8176 258.429 38.2483 258.878 38.7803 259.195C39.325 259.499 39.914 259.651 40.5473 259.651C41.1933 259.651 41.7823 259.499 42.3143 259.195C42.859 258.878 43.2896 258.429 43.6063 257.846C43.923 257.251 44.0813 256.554 44.0813 255.756ZM50.2331 252.013V258.15C50.2331 258.657 50.3408 259.018 50.5561 259.233C50.7715 259.436 51.1451 259.537 51.6771 259.537H52.9501V261H51.3921C50.4295 261 49.7075 260.778 49.2261 260.335C48.7448 259.892 48.5041 259.163 48.5041 258.15V252.013H47.1551V250.588H48.5041V247.966H50.2331V250.588H52.9501V252.013H50.2331ZM59.586 261.171C58.6107 261.171 57.724 260.949 56.926 260.506C56.1407 260.063 55.52 259.436 55.064 258.625C54.6207 257.802 54.399 256.852 54.399 255.775C54.399 254.711 54.627 253.774 55.083 252.963C55.5517 252.14 56.185 251.513 56.983 251.082C57.781 250.639 58.674 250.417 59.662 250.417C60.65 250.417 61.543 250.639 62.341 251.082C63.139 251.513 63.766 252.133 64.222 252.944C64.6907 253.755 64.925 254.698 64.925 255.775C64.925 256.852 64.6844 257.802 64.203 258.625C63.7344 259.436 63.0947 260.063 62.284 260.506C61.4734 260.949 60.574 261.171 59.586 261.171ZM59.586 259.651C60.2067 259.651 60.7894 259.505 61.334 259.214C61.8787 258.923 62.3157 258.486 62.645 257.903C62.987 257.32 63.158 256.611 63.158 255.775C63.158 254.939 62.9934 254.23 62.664 253.647C62.3347 253.064 61.904 252.634 61.372 252.355C60.84 252.064 60.2637 251.918 59.643 251.918C59.0097 251.918 58.427 252.064 57.895 252.355C57.3757 252.634 56.9577 253.064 56.641 253.647C56.3244 254.23 56.166 254.939 56.166 255.775C56.166 256.624 56.318 257.339 56.622 257.922C56.9387 258.505 57.3567 258.942 57.876 259.233C58.3954 259.512 58.9654 259.651 59.586 259.651ZM71.5228 248.84V247.263H75.0948V261H73.3468V248.84H71.5228ZM78.0647 253.989C78.0647 251.81 78.4194 250.113 79.1287 248.897C79.8381 247.668 81.0794 247.054 82.8527 247.054C84.6134 247.054 85.8484 247.668 86.5577 248.897C87.2671 250.113 87.6217 251.81 87.6217 253.989C87.6217 256.206 87.2671 257.928 86.5577 259.157C85.8484 260.386 84.6134 261 82.8527 261C81.0794 261 79.8381 260.386 79.1287 259.157C78.4194 257.928 78.0647 256.206 78.0647 253.989ZM85.9117 253.989C85.9117 252.887 85.8357 251.956 85.6837 251.196C85.5444 250.423 85.2467 249.803 84.7907 249.334C84.3474 248.865 83.7014 248.631 82.8527 248.631C81.9914 248.631 81.3327 248.865 80.8767 249.334C80.4334 249.803 80.1357 250.423 79.9837 251.196C79.8444 251.956 79.7747 252.887 79.7747 253.989C79.7747 255.129 79.8444 256.085 79.9837 256.858C80.1357 257.631 80.4334 258.251 80.8767 258.72C81.3327 259.189 81.9914 259.423 82.8527 259.423C83.7014 259.423 84.3474 259.189 84.7907 258.72C85.2467 258.251 85.5444 257.631 85.6837 256.858C85.8357 256.085 85.9117 255.129 85.9117 253.989ZM92.0664 258.606L89.9384 263.717H88.7794L90.1664 258.606H92.0664ZM93.762 253.989C93.762 251.81 94.1167 250.113 94.826 248.897C95.5353 247.668 96.7767 247.054 98.55 247.054C100.311 247.054 101.546 247.668 102.255 248.897C102.964 250.113 103.319 251.81 103.319 253.989C103.319 256.206 102.964 257.928 102.255 259.157C101.546 260.386 100.311 261 98.55 261C96.7767 261 95.5353 260.386 94.826 259.157C94.1167 257.928 93.762 256.206 93.762 253.989ZM101.609 253.989C101.609 252.887 101.533 251.956 101.381 251.196C101.242 250.423 100.944 249.803 100.488 249.334C100.045 248.865 99.3987 248.631 98.55 248.631C97.6887 248.631 97.03 248.865 96.574 249.334C96.1307 249.803 95.833 250.423 95.681 251.196C95.5417 251.956 95.472 252.887 95.472 253.989C95.472 255.129 95.5417 256.085 95.681 256.858C95.833 257.631 96.1307 258.251 96.574 258.72C97.03 259.189 97.6887 259.423 98.55 259.423C99.3987 259.423 100.045 259.189 100.488 258.72C100.944 258.251 101.242 257.631 101.381 256.858C101.533 256.085 101.609 255.129 101.609 253.989ZM105.693 253.989C105.693 251.81 106.047 250.113 106.757 248.897C107.466 247.668 108.707 247.054 110.481 247.054C112.241 247.054 113.476 247.668 114.186 248.897C114.895 250.113 115.25 251.81 115.25 253.989C115.25 256.206 114.895 257.928 114.186 259.157C113.476 260.386 112.241 261 110.481 261C108.707 261 107.466 260.386 106.757 259.157C106.047 257.928 105.693 256.206 105.693 253.989ZM113.54 253.989C113.54 252.887 113.464 251.956 113.312 251.196C113.172 250.423 112.875 249.803 112.419 249.334C111.975 248.865 111.329 248.631 110.481 248.631C109.619 248.631 108.961 248.865 108.505 249.334C108.061 249.803 107.764 250.423 107.612 251.196C107.472 251.956 107.403 252.887 107.403 253.989C107.403 255.129 107.472 256.085 107.612 256.858C107.764 257.631 108.061 258.251 108.505 258.72C108.961 259.189 109.619 259.423 110.481 259.423C111.329 259.423 111.975 259.189 112.419 258.72C112.875 258.251 113.172 257.631 113.312 256.858C113.464 256.085 113.54 255.129 113.54 253.989ZM117.623 253.989C117.623 251.81 117.978 250.113 118.687 248.897C119.397 247.668 120.638 247.054 122.411 247.054C124.172 247.054 125.407 247.668 126.116 248.897C126.826 250.113 127.18 251.81 127.18 253.989C127.18 256.206 126.826 257.928 126.116 259.157C125.407 260.386 124.172 261 122.411 261C120.638 261 119.397 260.386 118.687 259.157C117.978 257.928 117.623 256.206 117.623 253.989ZM125.47 253.989C125.47 252.887 125.394 251.956 125.242 251.196C125.103 250.423 124.805 249.803 124.349 249.334C123.906 248.865 123.26 248.631 122.411 248.631C121.55 248.631 120.891 248.865 120.435 249.334C119.992 249.803 119.694 250.423 119.542 251.196C119.403 251.956 119.333 252.887 119.333 253.989C119.333 255.129 119.403 256.085 119.542 256.858C119.694 257.631 119.992 258.251 120.435 258.72C120.891 259.189 121.55 259.423 122.411 259.423C123.26 259.423 123.906 259.189 124.349 258.72C124.805 258.251 125.103 257.631 125.242 256.858C125.394 256.085 125.47 255.129 125.47 253.989ZM136.633 246.94V261H134.904V246.94H136.633ZM140.473 248.897C140.144 248.897 139.865 248.783 139.637 248.555C139.409 248.327 139.295 248.048 139.295 247.719C139.295 247.39 139.409 247.111 139.637 246.883C139.865 246.655 140.144 246.541 140.473 246.541C140.79 246.541 141.056 246.655 141.271 246.883C141.499 247.111 141.613 247.39 141.613 247.719C141.613 248.048 141.499 248.327 141.271 248.555C141.056 248.783 140.79 248.897 140.473 248.897ZM141.309 250.588V261H139.58V250.588H141.309ZM156.777 250.398C157.588 250.398 158.31 250.569 158.943 250.911C159.576 251.24 160.077 251.741 160.444 252.412C160.811 253.083 160.995 253.9 160.995 254.863V261H159.285V255.11C159.285 254.071 159.025 253.28 158.506 252.735C157.999 252.178 157.309 251.899 156.435 251.899C155.536 251.899 154.82 252.19 154.288 252.773C153.756 253.343 153.49 254.173 153.49 255.262V261H151.78V255.11C151.78 254.071 151.52 253.28 151.001 252.735C150.494 252.178 149.804 251.899 148.93 251.899C148.031 251.899 147.315 252.19 146.783 252.773C146.251 253.343 145.985 254.173 145.985 255.262V261H144.256V250.588H145.985V252.089C146.327 251.544 146.783 251.126 147.353 250.835C147.936 250.544 148.575 250.398 149.272 250.398C150.146 250.398 150.919 250.594 151.59 250.987C152.261 251.38 152.762 251.956 153.091 252.716C153.382 251.981 153.864 251.411 154.535 251.006C155.206 250.601 155.954 250.398 156.777 250.398ZM164.724 248.897C164.395 248.897 164.116 248.783 163.888 248.555C163.66 248.327 163.546 248.048 163.546 247.719C163.546 247.39 163.66 247.111 163.888 246.883C164.116 246.655 164.395 246.541 164.724 246.541C165.041 246.541 165.307 246.655 165.522 246.883C165.75 247.111 165.864 247.39 165.864 247.719C165.864 248.048 165.75 248.327 165.522 248.555C165.307 248.783 165.041 248.897 164.724 248.897ZM165.56 250.588V261H163.831V250.588H165.56ZM170.616 252.013V258.15C170.616 258.657 170.724 259.018 170.939 259.233C171.154 259.436 171.528 259.537 172.06 259.537H173.333V261H171.775C170.812 261 170.09 260.778 169.609 260.335C169.128 259.892 168.887 259.163 168.887 258.15V252.013H167.538V250.588H168.887V247.966H170.616V250.588H173.333V252.013H170.616ZM185.034 261.171C184.059 261.171 183.172 260.949 182.374 260.506C181.589 260.063 180.968 259.436 180.512 258.625C180.069 257.802 179.847 256.852 179.847 255.775C179.847 254.711 180.075 253.774 180.531 252.963C181 252.14 181.633 251.513 182.431 251.082C183.229 250.639 184.122 250.417 185.11 250.417C186.098 250.417 186.991 250.639 187.789 251.082C188.587 251.513 189.214 252.133 189.67 252.944C190.139 253.755 190.373 254.698 190.373 255.775C190.373 256.852 190.133 257.802 189.651 258.625C189.183 259.436 188.543 260.063 187.732 260.506C186.922 260.949 186.022 261.171 185.034 261.171ZM185.034 259.651C185.655 259.651 186.238 259.505 186.782 259.214C187.327 258.923 187.764 258.486 188.093 257.903C188.435 257.32 188.606 256.611 188.606 255.775C188.606 254.939 188.442 254.23 188.112 253.647C187.783 253.064 187.352 252.634 186.82 252.355C186.288 252.064 185.712 251.918 185.091 251.918C184.458 251.918 183.875 252.064 183.343 252.355C182.824 252.634 182.406 253.064 182.089 253.647C181.773 254.23 181.614 254.939 181.614 255.775C181.614 256.624 181.766 257.339 182.07 257.922C182.387 258.505 182.805 258.942 183.324 259.233C183.844 259.512 184.414 259.651 185.034 259.651ZM197.72 250.398C198.986 250.398 200.012 250.784 200.798 251.557C201.583 252.317 201.976 253.419 201.976 254.863V261H200.266V255.11C200.266 254.071 200.006 253.28 199.487 252.735C198.967 252.178 198.258 251.899 197.359 251.899C196.447 251.899 195.718 252.184 195.174 252.754C194.642 253.324 194.376 254.154 194.376 255.243V261H192.647V250.588H194.376V252.07C194.718 251.538 195.18 251.126 195.763 250.835C196.358 250.544 197.01 250.398 197.72 250.398ZM214.3 255.395C214.3 255.724 214.281 256.073 214.243 256.44H205.921C205.984 257.466 206.333 258.27 206.966 258.853C207.612 259.423 208.391 259.708 209.303 259.708C210.05 259.708 210.671 259.537 211.165 259.195C211.672 258.84 212.026 258.372 212.229 257.789H214.091C213.812 258.79 213.255 259.607 212.419 260.24C211.583 260.861 210.544 261.171 209.303 261.171C208.315 261.171 207.428 260.949 206.643 260.506C205.87 260.063 205.262 259.436 204.819 258.625C204.376 257.802 204.154 256.852 204.154 255.775C204.154 254.698 204.369 253.755 204.8 252.944C205.231 252.133 205.832 251.513 206.605 251.082C207.39 250.639 208.29 250.417 209.303 250.417C210.291 250.417 211.165 250.632 211.925 251.063C212.685 251.494 213.268 252.089 213.673 252.849C214.091 253.596 214.3 254.445 214.3 255.395ZM212.514 255.034C212.514 254.375 212.368 253.812 212.077 253.343C211.786 252.862 211.387 252.501 210.88 252.26C210.386 252.007 209.835 251.88 209.227 251.88C208.353 251.88 207.606 252.159 206.985 252.716C206.377 253.273 206.029 254.046 205.94 255.034H212.514ZM234.169 250.398C234.979 250.398 235.701 250.569 236.335 250.911C236.968 251.24 237.468 251.741 237.836 252.412C238.203 253.083 238.387 253.9 238.387 254.863V261H236.677V255.11C236.677 254.071 236.417 253.28 235.898 252.735C235.391 252.178 234.701 251.899 233.827 251.899C232.927 251.899 232.212 252.19 231.68 252.773C231.148 253.343 230.882 254.173 230.882 255.262V261H229.172V255.11C229.172 254.071 228.912 253.28 228.393 252.735C227.886 252.178 227.196 251.899 226.322 251.899C225.422 251.899 224.707 252.19 224.175 252.773C223.643 253.343 223.377 254.173 223.377 255.262V261H221.648V250.588H223.377V252.089C223.719 251.544 224.175 251.126 224.745 250.835C225.327 250.544 225.967 250.398 226.664 250.398C227.538 250.398 228.31 250.594 228.982 250.987C229.653 251.38 230.153 251.956 230.483 252.716C230.774 251.981 231.255 251.411 231.927 251.006C232.598 250.601 233.345 250.398 234.169 250.398ZM245.764 261.171C244.788 261.171 243.902 260.949 243.104 260.506C242.318 260.063 241.698 259.436 241.242 258.625C240.798 257.802 240.577 256.852 240.577 255.775C240.577 254.711 240.805 253.774 241.261 252.963C241.729 252.14 242.363 251.513 243.161 251.082C243.959 250.639 244.852 250.417 245.84 250.417C246.828 250.417 247.721 250.639 248.519 251.082C249.317 251.513 249.944 252.133 250.4 252.944C250.868 253.755 251.103 254.698 251.103 255.775C251.103 256.852 250.862 257.802 250.381 258.625C249.912 259.436 249.272 260.063 248.462 260.506C247.651 260.949 246.752 261.171 245.764 261.171ZM245.764 259.651C246.384 259.651 246.967 259.505 247.512 259.214C248.056 258.923 248.493 258.486 248.823 257.903C249.165 257.32 249.336 256.611 249.336 255.775C249.336 254.939 249.171 254.23 248.842 253.647C248.512 253.064 248.082 252.634 247.55 252.355C247.018 252.064 246.441 251.918 245.821 251.918C245.187 251.918 244.605 252.064 244.073 252.355C243.553 252.634 243.135 253.064 242.819 253.647C242.502 254.23 242.344 254.939 242.344 255.775C242.344 256.624 242.496 257.339 242.8 257.922C243.116 258.505 243.534 258.942 244.054 259.233C244.573 259.512 245.143 259.651 245.764 259.651ZM258.449 250.398C259.716 250.398 260.742 250.784 261.527 251.557C262.312 252.317 262.705 253.419 262.705 254.863V261H260.995V255.11C260.995 254.071 260.735 253.28 260.216 252.735C259.697 252.178 258.987 251.899 258.088 251.899C257.176 251.899 256.448 252.184 255.903 252.754C255.371 253.324 255.105 254.154 255.105 255.243V261H253.376V250.588H255.105V252.07C255.447 251.538 255.909 251.126 256.492 250.835C257.087 250.544 257.74 250.398 258.449 250.398ZM267.638 252.013V258.15C267.638 258.657 267.746 259.018 267.961 259.233C268.177 259.436 268.55 259.537 269.082 259.537H270.355V261H268.797C267.835 261 267.113 260.778 266.631 260.335C266.15 259.892 265.909 259.163 265.909 258.15V252.013H264.56V250.588H265.909V247.966H267.638V250.588H270.355V252.013H267.638ZM277.618 250.398C278.404 250.398 279.113 250.569 279.746 250.911C280.38 251.24 280.874 251.741 281.228 252.412C281.596 253.083 281.779 253.9 281.779 254.863V261H280.069V255.11C280.069 254.071 279.81 253.28 279.29 252.735C278.771 252.178 278.062 251.899 277.162 251.899C276.25 251.899 275.522 252.184 274.977 252.754C274.445 253.324 274.179 254.154 274.179 255.243V261H272.45V246.94H274.179V252.07C274.521 251.538 274.99 251.126 275.585 250.835C276.193 250.544 276.871 250.398 277.618 250.398ZM24.154 287.757V296.136C24.154 297.314 24.439 298.188 25.009 298.758C25.5917 299.328 26.396 299.613 27.422 299.613C28.4353 299.613 29.227 299.328 29.797 298.758C30.3797 298.188 30.671 297.314 30.671 296.136V287.757H32.4V296.117C32.4 297.219 32.1783 298.15 31.735 298.91C31.2917 299.657 30.69 300.215 29.93 300.582C29.1827 300.949 28.3403 301.133 27.403 301.133C26.4657 301.133 25.617 300.949 24.857 300.582C24.1097 300.215 23.5143 299.657 23.071 298.91C22.6403 298.15 22.425 297.219 22.425 296.117V287.757H24.154ZM37.0133 292.507C37.3553 291.912 37.862 291.418 38.5333 291.025C39.2173 290.62 40.009 290.417 40.9083 290.417C41.833 290.417 42.669 290.639 43.4163 291.082C44.1763 291.525 44.7716 292.152 45.2023 292.963C45.633 293.761 45.8483 294.692 45.8483 295.756C45.8483 296.807 45.633 297.745 45.2023 298.568C44.7716 299.391 44.1763 300.031 43.4163 300.487C42.669 300.943 41.833 301.171 40.9083 301.171C40.0216 301.171 39.2363 300.975 38.5523 300.582C37.881 300.177 37.368 299.676 37.0133 299.081V305.94H35.2843V290.588H37.0133V292.507ZM44.0813 295.756C44.0813 294.971 43.923 294.287 43.6063 293.704C43.2896 293.121 42.859 292.678 42.3143 292.374C41.7823 292.07 41.1933 291.918 40.5473 291.918C39.914 291.918 39.325 292.076 38.7803 292.393C38.2483 292.697 37.8176 293.147 37.4883 293.742C37.1716 294.325 37.0133 295.002 37.0133 295.775C37.0133 296.56 37.1716 297.251 37.4883 297.846C37.8176 298.429 38.2483 298.878 38.7803 299.195C39.325 299.499 39.914 299.651 40.5473 299.651C41.1933 299.651 41.7823 299.499 42.3143 299.195C42.859 298.878 43.2896 298.429 43.6063 297.846C43.923 297.251 44.0813 296.554 44.0813 295.756ZM50.2331 292.013V298.15C50.2331 298.657 50.3408 299.018 50.5561 299.233C50.7715 299.436 51.1451 299.537 51.6771 299.537H52.9501V301H51.3921C50.4295 301 49.7075 300.778 49.2261 300.335C48.7448 299.892 48.5041 299.163 48.5041 298.15V292.013H47.1551V290.588H48.5041V287.966H50.2331V290.588H52.9501V292.013H50.2331ZM59.586 301.171C58.6107 301.171 57.724 300.949 56.926 300.506C56.1407 300.063 55.52 299.436 55.064 298.625C54.6207 297.802 54.399 296.852 54.399 295.775C54.399 294.711 54.627 293.774 55.083 292.963C55.5517 292.14 56.185 291.513 56.983 291.082C57.781 290.639 58.674 290.417 59.662 290.417C60.65 290.417 61.543 290.639 62.341 291.082C63.139 291.513 63.766 292.133 64.222 292.944C64.6907 293.755 64.925 294.698 64.925 295.775C64.925 296.852 64.6844 297.802 64.203 298.625C63.7344 299.436 63.0947 300.063 62.284 300.506C61.4734 300.949 60.574 301.171 59.586 301.171ZM59.586 299.651C60.2067 299.651 60.7894 299.505 61.334 299.214C61.8787 298.923 62.3157 298.486 62.645 297.903C62.987 297.32 63.158 296.611 63.158 295.775C63.158 294.939 62.9934 294.23 62.664 293.647C62.3347 293.064 61.904 292.634 61.372 292.355C60.84 292.064 60.2637 291.918 59.643 291.918C59.0097 291.918 58.427 292.064 57.895 292.355C57.3757 292.634 56.9577 293.064 56.641 293.647C56.3244 294.23 56.166 294.939 56.166 295.775C56.166 296.624 56.318 297.339 56.622 297.922C56.9387 298.505 57.3567 298.942 57.876 299.233C58.3954 299.512 58.9654 299.651 59.586 299.651ZM80.7378 288.764H74.0688V293.096C74.3601 292.691 74.7908 292.361 75.3608 292.108C75.9308 291.842 76.5451 291.709 77.2038 291.709C78.2551 291.709 79.1101 291.931 79.7688 292.374C80.4274 292.805 80.8961 293.368 81.1748 294.065C81.4661 294.749 81.6118 295.477 81.6118 296.25C81.6118 297.162 81.4408 297.979 81.0988 298.701C80.7568 299.423 80.2311 299.993 79.5218 300.411C78.8251 300.829 77.9574 301.038 76.9188 301.038C75.5888 301.038 74.5121 300.696 73.6888 300.012C72.8654 299.328 72.3651 298.416 72.1878 297.276H73.8788C74.0434 297.998 74.3918 298.562 74.9238 298.967C75.4558 299.372 76.1271 299.575 76.9378 299.575C77.9384 299.575 78.6921 299.277 79.1988 298.682C79.7054 298.074 79.9588 297.276 79.9588 296.288C79.9588 295.3 79.7054 294.54 79.1988 294.008C78.6921 293.463 77.9448 293.191 76.9568 293.191C76.2854 293.191 75.6964 293.356 75.1898 293.685C74.6958 294.002 74.3348 294.439 74.1068 294.996H72.4728V287.244H80.7378V288.764ZM83.9094 293.989C83.9094 291.81 84.2641 290.113 84.9734 288.897C85.6828 287.668 86.9241 287.054 88.6974 287.054C90.4581 287.054 91.6931 287.668 92.4024 288.897C93.1118 290.113 93.4664 291.81 93.4664 293.989C93.4664 296.206 93.1118 297.928 92.4024 299.157C91.6931 300.386 90.4581 301 88.6974 301C86.9241 301 85.6828 300.386 84.9734 299.157C84.2641 297.928 83.9094 296.206 83.9094 293.989ZM91.7564 293.989C91.7564 292.887 91.6804 291.956 91.5284 291.196C91.3891 290.423 91.0914 289.803 90.6354 289.334C90.1921 288.865 89.5461 288.631 88.6974 288.631C87.8361 288.631 87.1774 288.865 86.7214 289.334C86.2781 289.803 85.9804 290.423 85.8284 291.196C85.6891 291.956 85.6194 292.887 85.6194 293.989C85.6194 295.129 85.6891 296.085 85.8284 296.858C85.9804 297.631 86.2781 298.251 86.7214 298.72C87.1774 299.189 87.8361 299.423 88.6974 299.423C89.5461 299.423 90.1921 299.189 90.6354 298.72C91.0914 298.251 91.3891 297.631 91.5284 296.858C91.6804 296.085 91.7564 295.129 91.7564 293.989ZM102.084 288.897C101.754 288.897 101.476 288.783 101.248 288.555C101.02 288.327 100.906 288.048 100.906 287.719C100.906 287.39 101.02 287.111 101.248 286.883C101.476 286.655 101.754 286.541 102.084 286.541C102.4 286.541 102.666 286.655 102.882 286.883C103.11 287.111 103.224 287.39 103.224 287.719C103.224 288.048 103.11 288.327 102.882 288.555C102.666 288.783 102.4 288.897 102.084 288.897ZM102.92 290.588V301H101.191V290.588H102.92ZM118.387 290.398C119.198 290.398 119.92 290.569 120.553 290.911C121.187 291.24 121.687 291.741 122.054 292.412C122.422 293.083 122.605 293.9 122.605 294.863V301H120.895V295.11C120.895 294.071 120.636 293.28 120.116 292.735C119.61 292.178 118.919 291.899 118.045 291.899C117.146 291.899 116.43 292.19 115.898 292.773C115.366 293.343 115.1 294.173 115.1 295.262V301H113.39V295.11C113.39 294.071 113.131 293.28 112.611 292.735C112.105 292.178 111.414 291.899 110.54 291.899C109.641 291.899 108.925 292.19 108.393 292.773C107.861 293.343 107.595 294.173 107.595 295.262V301H105.866V290.588H107.595V292.089C107.937 291.544 108.393 291.126 108.963 290.835C109.546 290.544 110.186 290.398 110.882 290.398C111.756 290.398 112.529 290.594 113.2 290.987C113.872 291.38 114.372 291.956 114.701 292.716C114.993 291.981 115.474 291.411 116.145 291.006C116.817 290.601 117.564 290.398 118.387 290.398ZM124.796 295.756C124.796 294.692 125.011 293.761 125.442 292.963C125.872 292.152 126.461 291.525 127.209 291.082C127.969 290.639 128.811 290.417 129.736 290.417C130.648 290.417 131.439 290.613 132.111 291.006C132.782 291.399 133.282 291.893 133.612 292.488V290.588H135.36V301H133.612V299.062C133.27 299.67 132.757 300.177 132.073 300.582C131.401 300.975 130.616 301.171 129.717 301.171C128.792 301.171 127.956 300.943 127.209 300.487C126.461 300.031 125.872 299.391 125.442 298.568C125.011 297.745 124.796 296.807 124.796 295.756ZM133.612 295.775C133.612 294.99 133.453 294.306 133.137 293.723C132.82 293.14 132.389 292.697 131.845 292.393C131.313 292.076 130.724 291.918 130.078 291.918C129.432 291.918 128.843 292.07 128.311 292.374C127.779 292.678 127.354 293.121 127.038 293.704C126.721 294.287 126.563 294.971 126.563 295.756C126.563 296.554 126.721 297.251 127.038 297.846C127.354 298.429 127.779 298.878 128.311 299.195C128.843 299.499 129.432 299.651 130.078 299.651C130.724 299.651 131.313 299.499 131.845 299.195C132.389 298.878 132.82 298.429 133.137 297.846C133.453 297.251 133.612 296.56 133.612 295.775ZM142.575 290.417C143.475 290.417 144.26 290.613 144.931 291.006C145.615 291.399 146.122 291.893 146.451 292.488V290.588H148.199V301.228C148.199 302.178 147.997 303.02 147.591 303.755C147.186 304.502 146.603 305.085 145.843 305.503C145.096 305.921 144.222 306.13 143.221 306.13C141.853 306.13 140.713 305.807 139.801 305.161C138.889 304.515 138.351 303.635 138.186 302.52H139.896C140.086 303.153 140.479 303.66 141.074 304.04C141.67 304.433 142.385 304.629 143.221 304.629C144.171 304.629 144.944 304.331 145.539 303.736C146.147 303.141 146.451 302.305 146.451 301.228V299.043C146.109 299.651 145.603 300.158 144.931 300.563C144.26 300.968 143.475 301.171 142.575 301.171C141.651 301.171 140.808 300.943 140.048 300.487C139.301 300.031 138.712 299.391 138.281 298.568C137.851 297.745 137.635 296.807 137.635 295.756C137.635 294.692 137.851 293.761 138.281 292.963C138.712 292.152 139.301 291.525 140.048 291.082C140.808 290.639 141.651 290.417 142.575 290.417ZM146.451 295.775C146.451 294.99 146.293 294.306 145.976 293.723C145.66 293.14 145.229 292.697 144.684 292.393C144.152 292.076 143.563 291.918 142.917 291.918C142.271 291.918 141.682 292.07 141.15 292.374C140.618 292.678 140.194 293.121 139.877 293.704C139.561 294.287 139.402 294.971 139.402 295.756C139.402 296.554 139.561 297.251 139.877 297.846C140.194 298.429 140.618 298.878 141.15 299.195C141.682 299.499 142.271 299.651 142.917 299.651C143.563 299.651 144.152 299.499 144.684 299.195C145.229 298.878 145.66 298.429 145.976 297.846C146.293 297.251 146.451 296.56 146.451 295.775ZM160.621 295.395C160.621 295.724 160.602 296.073 160.564 296.44H152.242C152.306 297.466 152.654 298.27 153.287 298.853C153.933 299.423 154.712 299.708 155.624 299.708C156.372 299.708 156.992 299.537 157.486 299.195C157.993 298.84 158.348 298.372 158.55 297.789H160.412C160.134 298.79 159.576 299.607 158.74 300.24C157.904 300.861 156.866 301.171 155.624 301.171C154.636 301.171 153.75 300.949 152.964 300.506C152.192 300.063 151.584 299.436 151.14 298.625C150.697 297.802 150.475 296.852 150.475 295.775C150.475 294.698 150.691 293.755 151.121 292.944C151.552 292.133 152.154 291.513 152.926 291.082C153.712 290.639 154.611 290.417 155.624 290.417C156.612 290.417 157.486 290.632 158.246 291.063C159.006 291.494 159.589 292.089 159.994 292.849C160.412 293.596 160.621 294.445 160.621 295.395ZM158.835 295.034C158.835 294.375 158.69 293.812 158.398 293.343C158.107 292.862 157.708 292.501 157.201 292.26C156.707 292.007 156.156 291.88 155.548 291.88C154.674 291.88 153.927 292.159 153.306 292.716C152.698 293.273 152.35 294.046 152.261 295.034H158.835ZM166.589 301.171C165.791 301.171 165.076 301.038 164.442 300.772C163.809 300.493 163.309 300.113 162.941 299.632C162.574 299.138 162.371 298.574 162.333 297.941H164.119C164.17 298.46 164.411 298.885 164.841 299.214C165.285 299.543 165.861 299.708 166.57 299.708C167.229 299.708 167.748 299.562 168.128 299.271C168.508 298.98 168.698 298.612 168.698 298.169C168.698 297.713 168.496 297.377 168.09 297.162C167.685 296.934 167.058 296.712 166.209 296.497C165.437 296.294 164.803 296.092 164.309 295.889C163.828 295.674 163.41 295.363 163.055 294.958C162.713 294.54 162.542 293.995 162.542 293.324C162.542 292.792 162.701 292.304 163.017 291.861C163.334 291.418 163.784 291.069 164.366 290.816C164.949 290.55 165.614 290.417 166.361 290.417C167.514 290.417 168.445 290.708 169.154 291.291C169.864 291.874 170.244 292.672 170.294 293.685H168.565C168.527 293.14 168.306 292.703 167.9 292.374C167.508 292.045 166.976 291.88 166.304 291.88C165.684 291.88 165.19 292.013 164.822 292.279C164.455 292.545 164.271 292.893 164.271 293.324C164.271 293.666 164.379 293.951 164.594 294.179C164.822 294.394 165.101 294.572 165.43 294.711C165.772 294.838 166.241 294.983 166.836 295.148C167.584 295.351 168.192 295.553 168.66 295.756C169.129 295.946 169.528 296.237 169.857 296.63C170.199 297.023 170.377 297.536 170.389 298.169C170.389 298.739 170.231 299.252 169.914 299.708C169.598 300.164 169.148 300.525 168.565 300.791C167.995 301.044 167.337 301.171 166.589 301.171ZM177.25 295.756C177.25 294.692 177.465 293.761 177.896 292.963C178.326 292.152 178.915 291.525 179.663 291.082C180.423 290.639 181.265 290.417 182.19 290.417C183.102 290.417 183.893 290.613 184.565 291.006C185.236 291.399 185.736 291.893 186.066 292.488V290.588H187.814V301H186.066V299.062C185.724 299.67 185.211 300.177 184.527 300.582C183.855 300.975 183.07 301.171 182.171 301.171C181.246 301.171 180.41 300.943 179.663 300.487C178.915 300.031 178.326 299.391 177.896 298.568C177.465 297.745 177.25 296.807 177.25 295.756ZM186.066 295.775C186.066 294.99 185.907 294.306 185.591 293.723C185.274 293.14 184.843 292.697 184.299 292.393C183.767 292.076 183.178 291.918 182.532 291.918C181.886 291.918 181.297 292.07 180.765 292.374C180.233 292.678 179.808 293.121 179.492 293.704C179.175 294.287 179.017 294.971 179.017 295.756C179.017 296.554 179.175 297.251 179.492 297.846C179.808 298.429 180.233 298.878 180.765 299.195C181.297 299.499 181.886 299.651 182.532 299.651C183.178 299.651 183.767 299.499 184.299 299.195C184.843 298.878 185.274 298.429 185.591 297.846C185.907 297.251 186.066 296.56 186.066 295.775ZM192.844 292.013V298.15C192.844 298.657 192.952 299.018 193.167 299.233C193.383 299.436 193.756 299.537 194.288 299.537H195.561V301H194.003C193.041 301 192.319 300.778 191.837 300.335C191.356 299.892 191.115 299.163 191.115 298.15V292.013H189.766V290.588H191.115V287.966H192.844V290.588H195.561V292.013H192.844ZM207.263 301.171C206.287 301.171 205.401 300.949 204.603 300.506C203.817 300.063 203.197 299.436 202.741 298.625C202.297 297.802 202.076 296.852 202.076 295.775C202.076 294.711 202.304 293.774 202.76 292.963C203.228 292.14 203.862 291.513 204.66 291.082C205.458 290.639 206.351 290.417 207.339 290.417C208.327 290.417 209.22 290.639 210.018 291.082C210.816 291.513 211.443 292.133 211.899 292.944C212.367 293.755 212.602 294.698 212.602 295.775C212.602 296.852 212.361 297.802 211.88 298.625C211.411 299.436 210.771 300.063 209.961 300.506C209.15 300.949 208.251 301.171 207.263 301.171ZM207.263 299.651C207.883 299.651 208.466 299.505 209.011 299.214C209.555 298.923 209.992 298.486 210.322 297.903C210.664 297.32 210.835 296.611 210.835 295.775C210.835 294.939 210.67 294.23 210.341 293.647C210.011 293.064 209.581 292.634 209.049 292.355C208.517 292.064 207.94 291.918 207.32 291.918C206.686 291.918 206.104 292.064 205.572 292.355C205.052 292.634 204.634 293.064 204.318 293.647C204.001 294.23 203.843 294.939 203.843 295.775C203.843 296.624 203.995 297.339 204.299 297.922C204.615 298.505 205.033 298.942 205.553 299.233C206.072 299.512 206.642 299.651 207.263 299.651ZM219.948 290.398C221.215 290.398 222.241 290.784 223.026 291.557C223.811 292.317 224.204 293.419 224.204 294.863V301H222.494V295.11C222.494 294.071 222.234 293.28 221.715 292.735C221.196 292.178 220.486 291.899 219.587 291.899C218.675 291.899 217.947 292.184 217.402 292.754C216.87 293.324 216.604 294.154 216.604 295.243V301H214.875V290.588H216.604V292.07C216.946 291.538 217.408 291.126 217.991 290.835C218.586 290.544 219.239 290.398 219.948 290.398ZM226.382 295.775C226.382 294.698 226.598 293.761 227.028 292.963C227.459 292.152 228.054 291.525 228.814 291.082C229.587 290.639 230.467 290.417 231.455 290.417C232.735 290.417 233.786 290.727 234.609 291.348C235.445 291.969 235.996 292.83 236.262 293.932H234.4C234.223 293.299 233.875 292.798 233.355 292.431C232.849 292.064 232.215 291.88 231.455 291.88C230.467 291.88 229.669 292.222 229.061 292.906C228.453 293.577 228.149 294.534 228.149 295.775C228.149 297.029 228.453 297.998 229.061 298.682C229.669 299.366 230.467 299.708 231.455 299.708C232.215 299.708 232.849 299.531 233.355 299.176C233.862 298.821 234.21 298.315 234.4 297.656H236.262C235.984 298.72 235.426 299.575 234.59 300.221C233.754 300.854 232.709 301.171 231.455 301.171C230.467 301.171 229.587 300.949 228.814 300.506C228.054 300.063 227.459 299.436 227.028 298.625C226.598 297.814 226.382 296.864 226.382 295.775ZM248.069 295.395C248.069 295.724 248.05 296.073 248.012 296.44H239.69C239.754 297.466 240.102 298.27 240.735 298.853C241.381 299.423 242.16 299.708 243.072 299.708C243.82 299.708 244.44 299.537 244.934 299.195C245.441 298.84 245.796 298.372 245.998 297.789H247.86C247.582 298.79 247.024 299.607 246.188 300.24C245.352 300.861 244.314 301.171 243.072 301.171C242.084 301.171 241.198 300.949 240.412 300.506C239.64 300.063 239.032 299.436 238.588 298.625C238.145 297.802 237.923 296.852 237.923 295.775C237.923 294.698 238.139 293.755 238.569 292.944C239 292.133 239.602 291.513 240.374 291.082C241.16 290.639 242.059 290.417 243.072 290.417C244.06 290.417 244.934 290.632 245.694 291.063C246.454 291.494 247.037 292.089 247.442 292.849C247.86 293.596 248.069 294.445 248.069 295.395ZM246.283 295.034C246.283 294.375 246.138 293.812 245.846 293.343C245.555 292.862 245.156 292.501 244.649 292.26C244.155 292.007 243.604 291.88 242.996 291.88C242.122 291.88 241.375 292.159 240.754 292.716C240.146 293.273 239.798 294.046 239.709 295.034H246.283Z" fill="black"/>
<path d="M113.21 360.046V371.386C113.21 372.52 113.489 373.393 114.047 374.005C114.605 374.617 115.424 374.923 116.504 374.923C117.584 374.923 118.412 374.617 118.988 374.005C119.564 373.393 119.852 372.52 119.852 371.386V360.046H124.469V371.359C124.469 373.051 124.109 374.482 123.389 375.652C122.669 376.822 121.697 377.704 120.473 378.298C119.267 378.892 117.917 379.189 116.423 379.189C114.929 379.189 113.588 378.901 112.4 378.325C111.23 377.731 110.303 376.849 109.619 375.679C108.935 374.491 108.593 373.051 108.593 371.359V360.046H113.21ZM142.156 366.148C142.156 367.246 141.904 368.254 141.4 369.172C140.896 370.072 140.122 370.801 139.078 371.359C138.034 371.917 136.738 372.196 135.19 372.196H132.328V379H127.711V360.046H135.19C136.702 360.046 137.98 360.307 139.024 360.829C140.068 361.351 140.851 362.071 141.373 362.989C141.895 363.907 142.156 364.96 142.156 366.148ZM134.839 368.524C135.721 368.524 136.378 368.317 136.81 367.903C137.242 367.489 137.458 366.904 137.458 366.148C137.458 365.392 137.242 364.807 136.81 364.393C136.378 363.979 135.721 363.772 134.839 363.772H132.328V368.524H134.839ZM157.142 366.04C156.8 365.41 156.305 364.933 155.657 364.609C155.027 364.267 154.28 364.096 153.416 364.096C151.922 364.096 150.725 364.591 149.825 365.581C148.925 366.553 148.475 367.858 148.475 369.496C148.475 371.242 148.943 372.61 149.879 373.6C150.833 374.572 152.138 375.058 153.794 375.058C154.928 375.058 155.882 374.77 156.656 374.194C157.448 373.618 158.024 372.79 158.384 371.71H152.525V368.308H162.569V372.601C162.227 373.753 161.642 374.824 160.814 375.814C160.004 376.804 158.969 377.605 157.709 378.217C156.449 378.829 155.027 379.135 153.443 379.135C151.571 379.135 149.897 378.73 148.421 377.92C146.963 377.092 145.82 375.949 144.992 374.491C144.182 373.033 143.777 371.368 143.777 369.496C143.777 367.624 144.182 365.959 144.992 364.501C145.82 363.025 146.963 361.882 148.421 361.072C149.879 360.244 151.544 359.83 153.416 359.83C155.684 359.83 157.592 360.379 159.14 361.477C160.706 362.575 161.741 364.096 162.245 366.04H157.142ZM174.792 379L170.85 371.845H169.743V379H165.126V360.046H172.875C174.369 360.046 175.638 360.307 176.682 360.829C177.744 361.351 178.536 362.071 179.058 362.989C179.58 363.889 179.841 364.897 179.841 366.013C179.841 367.273 179.481 368.398 178.761 369.388C178.059 370.378 177.015 371.08 175.629 371.494L180.003 379H174.792ZM169.743 368.578H172.605C173.451 368.578 174.081 368.371 174.495 367.957C174.927 367.543 175.143 366.958 175.143 366.202C175.143 365.482 174.927 364.915 174.495 364.501C174.081 364.087 173.451 363.88 172.605 363.88H169.743V368.578ZM194.538 375.652H187.464L186.33 379H181.497L188.355 360.046H193.701L200.559 379H195.672L194.538 375.652ZM193.35 372.088L191.001 365.149L188.679 372.088H193.35ZM209.748 360.046C211.746 360.046 213.492 360.442 214.986 361.234C216.48 362.026 217.632 363.142 218.442 364.582C219.27 366.004 219.684 367.651 219.684 369.523C219.684 371.377 219.27 373.024 218.442 374.464C217.632 375.904 216.471 377.02 214.959 377.812C213.465 378.604 211.728 379 209.748 379H202.647V360.046H209.748ZM209.451 375.004C211.197 375.004 212.556 374.527 213.528 373.573C214.5 372.619 214.986 371.269 214.986 369.523C214.986 367.777 214.5 366.418 213.528 365.446C212.556 364.474 211.197 363.988 209.451 363.988H207.264V375.004H209.451ZM226.881 363.745V367.579H233.064V371.143H226.881V375.301H233.874V379H222.264V360.046H233.874V363.745H226.881Z" fill="black"/>
<defs>
<filter id="filter0_d_1_24" x="15" y="338" width="302" height="67" filterUnits="userSpaceOnUse" color-interpolation-filters="sRGB">
<feFlood flood-opacity="0" result="BackgroundImageFix"/>
<feColorMatrix in="SourceAlpha" type="matrix" values="0 0 0 0 0 0 0 0 0 0 0 0 0 0 0 0 0 0 127 0" result="hardAlpha"/>
<feOffset dx="-6" dy="7"/>
<feComposite in2="hardAlpha" operator="out"/>
<feColorMatrix type="matrix" values="0 0 0 0 0.108333 0 0 0 0 0.6255 0 0 0 0 1 0 0 0 0.25 0"/>
<feBlend mode="normal" in2="BackgroundImageFix" result="effect1_dropShadow_1_24"/>
<feBlend mode="normal" in="SourceGraphic" in2="effect1_dropShadow_1_24" result="shape"/>
</filter>
</defs>
</svg>
